<mxfile host="www.draw.io" modified="2023-04-12T12:35:22.488Z" agent="Mozilla/5.0 (Windows NT 10.0; Win64; x64) AppleWebKit/537.36 (KHTML, like Gecko) Chrome/112.0.0.0 Safari/537.36 Edg/112.0.1722.39" etag="y2WlHNHUx-NUlGyTtYie" version="21.1.6" type="device">
  <diagram name="Page-1" id="EkFEWgsc2GHSKyieTpSa">
    <mxGraphModel dx="1233" dy="573" grid="1" gridSize="10" guides="1" tooltips="1" connect="1" arrows="1" fold="1" page="1" pageScale="1" pageWidth="850" pageHeight="1100" math="0" shadow="0">
      <root>
        <mxCell id="0" />
        <mxCell id="1" parent="0" />
        <mxCell id="3S7xAI32F0Eyg7sSVChx-1" value="" style="ellipse;html=1;shape=startState;fillColor=#000000;strokeColor=#ff0000;" vertex="1" parent="1">
          <mxGeometry x="370" y="40" width="30" height="30" as="geometry" />
        </mxCell>
        <mxCell id="3S7xAI32F0Eyg7sSVChx-2" value="" style="edgeStyle=orthogonalEdgeStyle;html=1;verticalAlign=bottom;endArrow=open;endSize=8;strokeColor=#ff0000;rounded=0;" edge="1" parent="1" source="3S7xAI32F0Eyg7sSVChx-1">
          <mxGeometry relative="1" as="geometry">
            <mxPoint x="385" y="130" as="targetPoint" />
          </mxGeometry>
        </mxCell>
        <mxCell id="3S7xAI32F0Eyg7sSVChx-3" value="Masukan URL" style="rounded=1;whiteSpace=wrap;html=1;arcSize=40;fontColor=#000000;fillColor=#ffffc0;strokeColor=#ff0000;" vertex="1" parent="1">
          <mxGeometry x="325" y="130" width="120" height="40" as="geometry" />
        </mxCell>
        <mxCell id="3S7xAI32F0Eyg7sSVChx-4" value="" style="edgeStyle=orthogonalEdgeStyle;html=1;verticalAlign=bottom;endArrow=open;endSize=8;strokeColor=#ff0000;rounded=0;" edge="1" parent="1" source="3S7xAI32F0Eyg7sSVChx-3">
          <mxGeometry relative="1" as="geometry">
            <mxPoint x="385" y="230" as="targetPoint" />
          </mxGeometry>
        </mxCell>
        <mxCell id="3S7xAI32F0Eyg7sSVChx-5" value="Klik Button Login" style="rounded=1;whiteSpace=wrap;html=1;arcSize=40;fontColor=#000000;fillColor=#ffffc0;strokeColor=#ff0000;" vertex="1" parent="1">
          <mxGeometry x="325" y="230" width="120" height="40" as="geometry" />
        </mxCell>
        <mxCell id="3S7xAI32F0Eyg7sSVChx-6" value="" style="edgeStyle=orthogonalEdgeStyle;html=1;verticalAlign=bottom;endArrow=open;endSize=8;strokeColor=#ff0000;rounded=0;" edge="1" parent="1" source="3S7xAI32F0Eyg7sSVChx-5">
          <mxGeometry relative="1" as="geometry">
            <mxPoint x="385" y="330" as="targetPoint" />
          </mxGeometry>
        </mxCell>
        <mxCell id="3S7xAI32F0Eyg7sSVChx-7" value="Halaman Login" style="rounded=1;whiteSpace=wrap;html=1;arcSize=40;fontColor=#000000;fillColor=#ffffc0;strokeColor=#ff0000;" vertex="1" parent="1">
          <mxGeometry x="325" y="330" width="120" height="40" as="geometry" />
        </mxCell>
        <mxCell id="3S7xAI32F0Eyg7sSVChx-8" value="" style="edgeStyle=orthogonalEdgeStyle;html=1;verticalAlign=bottom;endArrow=open;endSize=8;strokeColor=#ff0000;rounded=0;" edge="1" parent="1" source="3S7xAI32F0Eyg7sSVChx-7">
          <mxGeometry relative="1" as="geometry">
            <mxPoint x="385" y="430" as="targetPoint" />
          </mxGeometry>
        </mxCell>
        <mxCell id="3S7xAI32F0Eyg7sSVChx-9" value="Input Email dan Password" style="rounded=1;whiteSpace=wrap;html=1;arcSize=40;fontColor=#000000;fillColor=#ffffc0;strokeColor=#ff0000;" vertex="1" parent="1">
          <mxGeometry x="325" y="430" width="120" height="40" as="geometry" />
        </mxCell>
        <mxCell id="3S7xAI32F0Eyg7sSVChx-10" value="" style="edgeStyle=orthogonalEdgeStyle;html=1;verticalAlign=bottom;endArrow=open;endSize=8;strokeColor=#ff0000;rounded=0;" edge="1" parent="1" source="3S7xAI32F0Eyg7sSVChx-9">
          <mxGeometry relative="1" as="geometry">
            <mxPoint x="385" y="530" as="targetPoint" />
          </mxGeometry>
        </mxCell>
        <mxCell id="3S7xAI32F0Eyg7sSVChx-11" value="Tampil Dashboard Pemimpin" style="rounded=1;whiteSpace=wrap;html=1;arcSize=40;fontColor=#000000;fillColor=#ffffc0;strokeColor=#ff0000;" vertex="1" parent="1">
          <mxGeometry x="325" y="530" width="120" height="40" as="geometry" />
        </mxCell>
        <mxCell id="3S7xAI32F0Eyg7sSVChx-12" value="" style="edgeStyle=orthogonalEdgeStyle;html=1;verticalAlign=bottom;endArrow=open;endSize=8;strokeColor=#ff0000;rounded=0;" edge="1" parent="1" source="3S7xAI32F0Eyg7sSVChx-11">
          <mxGeometry relative="1" as="geometry">
            <mxPoint x="385" y="630" as="targetPoint" />
          </mxGeometry>
        </mxCell>
        <mxCell id="3S7xAI32F0Eyg7sSVChx-13" value="" style="shape=line;html=1;strokeWidth=6;strokeColor=#ff0000;" vertex="1" parent="1">
          <mxGeometry x="80" y="630" width="520" height="10" as="geometry" />
        </mxCell>
        <mxCell id="3S7xAI32F0Eyg7sSVChx-14" value="" style="edgeStyle=orthogonalEdgeStyle;html=1;verticalAlign=bottom;endArrow=open;endSize=8;strokeColor=#ff0000;rounded=0;" edge="1" parent="1">
          <mxGeometry relative="1" as="geometry">
            <mxPoint x="100" y="680" as="targetPoint" />
            <mxPoint x="100" y="640" as="sourcePoint" />
          </mxGeometry>
        </mxCell>
        <mxCell id="3S7xAI32F0Eyg7sSVChx-15" value="Klik Dashboard" style="rounded=1;whiteSpace=wrap;html=1;arcSize=40;fontColor=#000000;fillColor=#ffffc0;strokeColor=#ff0000;" vertex="1" parent="1">
          <mxGeometry x="60" y="680" width="80" height="40" as="geometry" />
        </mxCell>
        <mxCell id="3S7xAI32F0Eyg7sSVChx-16" value="" style="edgeStyle=orthogonalEdgeStyle;html=1;verticalAlign=bottom;endArrow=open;endSize=8;strokeColor=#ff0000;rounded=0;" edge="1" parent="1" source="3S7xAI32F0Eyg7sSVChx-15">
          <mxGeometry relative="1" as="geometry">
            <mxPoint x="100" y="780" as="targetPoint" />
          </mxGeometry>
        </mxCell>
        <mxCell id="3S7xAI32F0Eyg7sSVChx-17" value="" style="edgeStyle=orthogonalEdgeStyle;html=1;verticalAlign=bottom;endArrow=open;endSize=8;strokeColor=#ff0000;rounded=0;" edge="1" parent="1">
          <mxGeometry relative="1" as="geometry">
            <mxPoint x="200" y="680" as="targetPoint" />
            <mxPoint x="200" y="640" as="sourcePoint" />
          </mxGeometry>
        </mxCell>
        <mxCell id="3S7xAI32F0Eyg7sSVChx-18" value="Klik Surat Baru" style="rounded=1;whiteSpace=wrap;html=1;arcSize=40;fontColor=#000000;fillColor=#ffffc0;strokeColor=#ff0000;" vertex="1" parent="1">
          <mxGeometry x="160" y="680" width="80" height="40" as="geometry" />
        </mxCell>
        <mxCell id="3S7xAI32F0Eyg7sSVChx-19" value="" style="edgeStyle=orthogonalEdgeStyle;html=1;verticalAlign=bottom;endArrow=open;endSize=8;strokeColor=#ff0000;rounded=0;" edge="1" parent="1" source="3S7xAI32F0Eyg7sSVChx-18">
          <mxGeometry relative="1" as="geometry">
            <mxPoint x="200" y="780" as="targetPoint" />
          </mxGeometry>
        </mxCell>
        <mxCell id="3S7xAI32F0Eyg7sSVChx-23" value="" style="edgeStyle=orthogonalEdgeStyle;html=1;verticalAlign=bottom;endArrow=open;endSize=8;strokeColor=#ff0000;rounded=0;" edge="1" parent="1">
          <mxGeometry relative="1" as="geometry">
            <mxPoint x="300" y="680" as="targetPoint" />
            <mxPoint x="300" y="640" as="sourcePoint" />
          </mxGeometry>
        </mxCell>
        <mxCell id="3S7xAI32F0Eyg7sSVChx-24" value="Klik Jadwal" style="rounded=1;whiteSpace=wrap;html=1;arcSize=40;fontColor=#000000;fillColor=#ffffc0;strokeColor=#ff0000;" vertex="1" parent="1">
          <mxGeometry x="260" y="680" width="80" height="40" as="geometry" />
        </mxCell>
        <mxCell id="3S7xAI32F0Eyg7sSVChx-25" value="" style="edgeStyle=orthogonalEdgeStyle;html=1;verticalAlign=bottom;endArrow=open;endSize=8;strokeColor=#ff0000;rounded=0;" edge="1" parent="1" source="3S7xAI32F0Eyg7sSVChx-24">
          <mxGeometry relative="1" as="geometry">
            <mxPoint x="300" y="780" as="targetPoint" />
          </mxGeometry>
        </mxCell>
        <mxCell id="3S7xAI32F0Eyg7sSVChx-26" value="" style="edgeStyle=orthogonalEdgeStyle;html=1;verticalAlign=bottom;endArrow=open;endSize=8;strokeColor=#ff0000;rounded=0;" edge="1" parent="1">
          <mxGeometry relative="1" as="geometry">
            <mxPoint x="400" y="680" as="targetPoint" />
            <mxPoint x="400" y="640" as="sourcePoint" />
          </mxGeometry>
        </mxCell>
        <mxCell id="3S7xAI32F0Eyg7sSVChx-27" value="Klik Cari Surat" style="rounded=1;whiteSpace=wrap;html=1;arcSize=40;fontColor=#000000;fillColor=#ffffc0;strokeColor=#ff0000;" vertex="1" parent="1">
          <mxGeometry x="360" y="680" width="80" height="40" as="geometry" />
        </mxCell>
        <mxCell id="3S7xAI32F0Eyg7sSVChx-28" value="" style="edgeStyle=orthogonalEdgeStyle;html=1;verticalAlign=bottom;endArrow=open;endSize=8;strokeColor=#ff0000;rounded=0;" edge="1" parent="1" source="3S7xAI32F0Eyg7sSVChx-27">
          <mxGeometry relative="1" as="geometry">
            <mxPoint x="400" y="780" as="targetPoint" />
          </mxGeometry>
        </mxCell>
        <mxCell id="3S7xAI32F0Eyg7sSVChx-32" value="" style="edgeStyle=orthogonalEdgeStyle;html=1;verticalAlign=bottom;endArrow=open;endSize=8;strokeColor=#ff0000;rounded=0;" edge="1" parent="1">
          <mxGeometry relative="1" as="geometry">
            <mxPoint x="520" y="680" as="targetPoint" />
            <mxPoint x="520" y="640" as="sourcePoint" />
          </mxGeometry>
        </mxCell>
        <mxCell id="3S7xAI32F0Eyg7sSVChx-33" value="Klik Ubah Profil" style="rounded=1;whiteSpace=wrap;html=1;arcSize=40;fontColor=#000000;fillColor=#ffffc0;strokeColor=#ff0000;" vertex="1" parent="1">
          <mxGeometry x="480" y="680" width="80" height="40" as="geometry" />
        </mxCell>
        <mxCell id="3S7xAI32F0Eyg7sSVChx-34" value="" style="edgeStyle=orthogonalEdgeStyle;html=1;verticalAlign=bottom;endArrow=open;endSize=8;strokeColor=#ff0000;rounded=0;" edge="1" parent="1" source="3S7xAI32F0Eyg7sSVChx-33">
          <mxGeometry relative="1" as="geometry">
            <mxPoint x="520" y="780" as="targetPoint" />
          </mxGeometry>
        </mxCell>
        <mxCell id="3S7xAI32F0Eyg7sSVChx-37" value="" style="ellipse;html=1;shape=endState;fillColor=#000000;strokeColor=#ff0000;" vertex="1" parent="1">
          <mxGeometry x="85" y="780" width="30" height="30" as="geometry" />
        </mxCell>
        <mxCell id="3S7xAI32F0Eyg7sSVChx-40" value="" style="ellipse;html=1;shape=endState;fillColor=#000000;strokeColor=#ff0000;" vertex="1" parent="1">
          <mxGeometry x="285" y="780" width="30" height="30" as="geometry" />
        </mxCell>
        <mxCell id="3S7xAI32F0Eyg7sSVChx-41" value="" style="ellipse;html=1;shape=endState;fillColor=#000000;strokeColor=#ff0000;" vertex="1" parent="1">
          <mxGeometry x="385" y="780" width="30" height="30" as="geometry" />
        </mxCell>
        <mxCell id="3S7xAI32F0Eyg7sSVChx-42" value="" style="ellipse;html=1;shape=endState;fillColor=#000000;strokeColor=#ff0000;" vertex="1" parent="1">
          <mxGeometry x="505" y="780" width="30" height="30" as="geometry" />
        </mxCell>
        <mxCell id="3S7xAI32F0Eyg7sSVChx-44" value="Klik Detail" style="rounded=1;whiteSpace=wrap;html=1;arcSize=40;fontColor=#000000;fillColor=#ffffc0;strokeColor=#ff0000;" vertex="1" parent="1">
          <mxGeometry x="140" y="780" width="120" height="40" as="geometry" />
        </mxCell>
        <mxCell id="3S7xAI32F0Eyg7sSVChx-45" value="" style="edgeStyle=orthogonalEdgeStyle;html=1;verticalAlign=bottom;endArrow=open;endSize=8;strokeColor=#ff0000;rounded=0;" edge="1" source="3S7xAI32F0Eyg7sSVChx-44" parent="1">
          <mxGeometry relative="1" as="geometry">
            <mxPoint x="200" y="880" as="targetPoint" />
          </mxGeometry>
        </mxCell>
        <mxCell id="3S7xAI32F0Eyg7sSVChx-46" value="Klik Disposisi" style="rounded=1;whiteSpace=wrap;html=1;arcSize=40;fontColor=#000000;fillColor=#ffffc0;strokeColor=#ff0000;" vertex="1" parent="1">
          <mxGeometry x="140" y="880" width="120" height="40" as="geometry" />
        </mxCell>
        <mxCell id="3S7xAI32F0Eyg7sSVChx-47" value="" style="edgeStyle=orthogonalEdgeStyle;html=1;verticalAlign=bottom;endArrow=open;endSize=8;strokeColor=#ff0000;rounded=0;" edge="1" source="3S7xAI32F0Eyg7sSVChx-46" parent="1">
          <mxGeometry relative="1" as="geometry">
            <mxPoint x="200" y="980" as="targetPoint" />
          </mxGeometry>
        </mxCell>
        <mxCell id="3S7xAI32F0Eyg7sSVChx-48" value="Kirim Disposisi" style="rounded=1;whiteSpace=wrap;html=1;arcSize=40;fontColor=#000000;fillColor=#ffffc0;strokeColor=#ff0000;" vertex="1" parent="1">
          <mxGeometry x="140" y="980" width="120" height="40" as="geometry" />
        </mxCell>
        <mxCell id="3S7xAI32F0Eyg7sSVChx-49" value="" style="edgeStyle=orthogonalEdgeStyle;html=1;verticalAlign=bottom;endArrow=open;endSize=8;strokeColor=#ff0000;rounded=0;" edge="1" source="3S7xAI32F0Eyg7sSVChx-48" parent="1">
          <mxGeometry relative="1" as="geometry">
            <mxPoint x="200" y="1080" as="targetPoint" />
          </mxGeometry>
        </mxCell>
        <mxCell id="3S7xAI32F0Eyg7sSVChx-50" value="" style="ellipse;html=1;shape=endState;fillColor=#000000;strokeColor=#ff0000;" vertex="1" parent="1">
          <mxGeometry x="185" y="1080" width="30" height="30" as="geometry" />
        </mxCell>
      </root>
    </mxGraphModel>
  </diagram>
</mxfile>
